ffmpeg version 3.4.8-0ubuntu0.2 Copyright (c) 2000-2020 the FFmpeg developers
  built with gcc 7 (Ubuntu 7.5.0-3ubuntu1~18.04)
  configuration: --prefix=/usr --extra-version=0ubuntu0.2 --toolchain=hardened --libdir=/usr/lib/x86_64-linux-gnu --incdir=/usr/include/x86_64-linux-gnu --enable-gpl --disable-stripping --enable-avresample --enable-avisynth --enable-gnutls --enable-ladspa --enable-libass --enable-libbluray --enable-libbs2b --enable-libcaca --enable-libcdio --enable-libflite --enable-libfontconfig --enable-libfreetype --enable-libfribidi --enable-libgme --enable-libgsm --enable-libmp3lame --enable-libmysofa --enable-libopenjpeg --enable-libopenmpt --enable-libopus --enable-libpulse --enable-librubberband --enable-librsvg --enable-libshine --enable-libsnappy --enable-libsoxr --enable-libspeex --enable-libssh --enable-libtheora --enable-libtwolame --enable-libvorbis --enable-libvpx --enable-libwavpack --enable-libwebp --enable-libx265 --enable-libxml2 --enable-libxvid --enable-libzmq --enable-libzvbi --enable-omx --enable-openal --enable-opengl --enable-sdl2 --enable-libdc1394 --enable-libdrm --enable-libiec61883 --enable-chromaprint --enable-frei0r --enable-libopencv --enable-libx264 --enable-shared
  libavutil      55. 78.100 / 55. 78.100
  libavcodec     57.107.100 / 57.107.100
  libavformat    57. 83.100 / 57. 83.100
  libavdevice    57. 10.100 / 57. 10.100
  libavfilter     6.107.100 /  6.107.100
  libavresample   3.  7.  0 /  3.  7.  0
  libswscale      4.  8.100 /  4.  8.100
  libswresample   2.  9.100 /  2.  9.100
  libpostproc    54.  7.100 / 54.  7.100
[rawvideo @ 0x55bad6248a20] Estimating duration from bitrate, this may be inaccurate
Input #0, rawvideo, from '../../SVC-Encoder-20220109T061506Z-001/SVC-Encoder/Dataset/RollerCoaster/ERP_8x8/tile_yuv/Tile_59_480x240.yuv':
  Duration: 00:00:10.00, start: 0.000000, bitrate: 41472 kb/s
    Stream #0:0: Video: rawvideo (I420 / 0x30323449), yuv420p, 480x240, 41472 kb/s, 30 tbr, 30 tbn, 30 tbc
Stream mapping:
  Stream #0:0 -> #0:0 (rawvideo (native) -> h264 (libx264))
Press [q] to stop, [?] for help
[libx264 @ 0x55bad6255c60] using cpu capabilities: MMX2 SSE2Fast LZCNT SSSE3 SSE4.2 AVX
[libx264 @ 0x55bad6255c60] profile High, level 2.1
Output #0, rawvideo, to 'RollerCoaster_Tile_59_480x240_x264_QP_28.h264':
  Metadata:
    encoder         : Lavf57.83.100
    Stream #0:0: Video: h264 (libx264), yuv420p, 480x240, q=-1--1, 30 fps, 30 tbn, 30 tbc
    Metadata:
      encoder         : Lavc57.107.100 libx264
    Side data:
      cpb: bitrate max/min/avg: 0/0/0 buffer size: 0 vbv_delay: -1
frame=  245 fps=0.0 q=34.0 PSNR=Y:nan U:nan V:nan *:nan size=      55kB time=00:00:06.73 bitrate=  66.4kbits/s speed=13.4x    frame=  300 fps=0.0 q=34.0 LPSNR=Y:inf U:inf V:inf *:inf size=      82kB time=00:00:09.93 bitrate=  67.5kbits/s speed=14.6x    
video:82kB audio:0kB subtitle:0kB other streams:0kB global headers:0kB muxing overhead: 0.000000%
[libx264 @ 0x55bad6255c60] frame I:2     Avg QP:26.50  size:  5119  PSNR Mean Y:46.51 U:49.75 V:44.91 Avg:46.56 Global:46.50
[libx264 @ 0x55bad6255c60] frame P:77    Avg QP:27.10  size:   511  PSNR Mean Y:45.38 U:49.11 V:45.52 Avg:45.83 Global:45.79
[libx264 @ 0x55bad6255c60] frame B:221   Avg QP:33.46  size:   155  PSNR Mean Y:45.19 U:49.10 V:45.51 Avg:45.69 Global:45.64
[libx264 @ 0x55bad6255c60] consecutive B-frames:  0.7%  2.7%  2.0% 94.7%
[libx264 @ 0x55bad6255c60] mb I  I16..4: 26.0% 45.9% 28.1%
[libx264 @ 0x55bad6255c60] mb P  I16..4:  1.9%  0.8%  0.1%  P16..4: 29.0%  6.9%  0.8%  0.0%  0.0%    skip:60.5%
[libx264 @ 0x55bad6255c60] mb B  I16..4:  0.1%  0.0%  0.0%  B16..8: 25.6%  1.2%  0.0%  direct: 0.0%  skip:73.1%  L0:49.3% L1:49.9% BI: 0.8%
[libx264 @ 0x55bad6255c60] 8x8 transform intra:35.2% inter:84.5%
[libx264 @ 0x55bad6255c60] coded y,uvDC,uvAC intra: 17.8% 34.2% 17.8% inter: 1.5% 2.3% 0.0%
[libx264 @ 0x55bad6255c60] i16 v,h,dc,p: 17% 67% 11%  5%
[libx264 @ 0x55bad6255c60] i8 v,h,dc,ddl,ddr,vr,hd,vl,hu: 15% 18% 59%  1%  1%  0%  1%  1%  4%
[libx264 @ 0x55bad6255c60] i4 v,h,dc,ddl,ddr,vr,hd,vl,hu:  8% 61% 16%  1%  1%  1%  4%  0%  8%
[libx264 @ 0x55bad6255c60] i8c dc,h,v,p: 41% 53%  4%  2%
[libx264 @ 0x55bad6255c60] Weighted P-Frames: Y:1.3% UV:0.0%
[libx264 @ 0x55bad6255c60] ref P L0: 56.1% 10.0% 25.1%  8.9%  0.0%
[libx264 @ 0x55bad6255c60] ref B L0: 66.1% 26.7%  7.2%
[libx264 @ 0x55bad6255c60] ref B L1: 81.7% 18.3%
[libx264 @ 0x55bad6255c60] PSNR Mean Y:45.246 U:49.107 V:45.511 Avg:45.731 Global:45.686 kb/s:67.03
